<svg xmlns="http://www.w3.org/2000/svg" xmlns:xlink="http://www.w3.org/1999/xlink" width="40" zoomAndPan="magnify" viewBox="0 0 30 30.000001" height="40" preserveAspectRatio="xMidYMid meet" version="1.0"><defs><clipPath id="5d4780d036"><path d="M 5.226562 5.203125 L 24.230469 5.203125 L 24.230469 23.984375 L 5.226562 23.984375 Z M 5.226562 5.203125 " clip-rule="nonzero"/></clipPath><clipPath id="a384b14f1c"><path d="M 8.128906 5.203125 L 21.253906 5.203125 C 22.023438 5.203125 22.765625 5.507812 23.308594 6.050781 C 23.851562 6.597656 24.160156 7.335938 24.160156 8.105469 L 24.160156 21.082031 C 24.160156 21.851562 23.851562 22.589844 23.308594 23.132812 C 22.765625 23.675781 22.023438 23.984375 21.253906 23.984375 L 8.128906 23.984375 C 7.359375 23.984375 6.621094 23.675781 6.078125 23.132812 C 5.53125 22.589844 5.226562 21.851562 5.226562 21.082031 L 5.226562 8.105469 C 5.226562 7.335938 5.53125 6.597656 6.078125 6.050781 C 6.621094 5.507812 7.359375 5.203125 8.128906 5.203125 Z M 8.128906 5.203125 " clip-rule="nonzero"/></clipPath><clipPath id="3cbda4ecc9"><path d="M 4.761719 10 L 24.359375 10 L 24.359375 21 L 4.761719 21 Z M 4.761719 10 " clip-rule="nonzero"/></clipPath><clipPath id="352ab7adb7"><path d="M 4.761719 4.660156 L 24.359375 4.660156 L 24.359375 24.257812 L 4.761719 24.257812 Z M 4.761719 4.660156 " clip-rule="nonzero"/></clipPath><clipPath id="b06772335f"><path d="M 15 16 L 28 16 L 28 29 L 15 29 Z M 15 16 " clip-rule="nonzero"/></clipPath><clipPath id="803aa03b74"><path d="M 26.242188 15.808594 L 27.914062 27.359375 L 16.363281 29.03125 L 14.6875 17.480469 Z M 26.242188 15.808594 " clip-rule="nonzero"/></clipPath><clipPath id="9a45e117b4"><path d="M 27.078125 21.582031 C 26.617188 18.394531 23.65625 16.179688 20.464844 16.644531 C 17.277344 17.105469 15.0625 20.066406 15.527344 23.257812 C 15.988281 26.445312 18.949219 28.65625 22.136719 28.195312 C 25.328125 27.734375 27.539062 24.773438 27.078125 21.582031 Z M 27.078125 21.582031 " clip-rule="nonzero"/></clipPath><clipPath id="4ea398004d"><path d="M 15 16 L 28 16 L 28 29 L 15 29 Z M 15 16 " clip-rule="nonzero"/></clipPath><clipPath id="1662558d28"><path d="M 26.242188 15.808594 L 27.90625 27.300781 L 16.414062 28.964844 L 14.75 17.472656 Z M 26.242188 15.808594 " clip-rule="nonzero"/></clipPath><clipPath id="43af909cd1"><path d="M 26.242188 15.808594 L 27.914062 27.355469 L 16.367188 29.027344 L 14.691406 17.480469 Z M 26.242188 15.808594 " clip-rule="nonzero"/></clipPath><clipPath id="c2e4c83dfc"><path d="M 27.078125 21.582031 C 26.617188 18.390625 23.65625 16.179688 20.46875 16.644531 C 17.277344 17.105469 15.066406 20.0625 15.527344 23.253906 C 15.992188 26.441406 18.949219 28.652344 22.140625 28.191406 C 25.328125 27.730469 27.539062 24.769531 27.078125 21.582031 Z M 27.078125 21.582031 " clip-rule="nonzero"/></clipPath><clipPath id="7a610dff16"><path d="M 16 17 L 27 17 L 27 28 L 16 28 Z M 16 17 " clip-rule="nonzero"/></clipPath><clipPath id="59c3ed2545"><path d="M 25.492188 16.808594 L 26.910156 26.613281 L 17.105469 28.03125 L 15.6875 18.226562 Z M 25.492188 16.808594 " clip-rule="nonzero"/></clipPath><clipPath id="ef1a290600"><path d="M 26.203125 21.710938 C 25.808594 19.003906 23.296875 17.125 20.589844 17.515625 C 17.882812 17.910156 16.003906 20.421875 16.398438 23.128906 C 16.789062 25.835938 19.300781 27.714844 22.007812 27.324219 C 24.71875 26.929688 26.59375 24.417969 26.203125 21.710938 Z M 26.203125 21.710938 " clip-rule="nonzero"/></clipPath><clipPath id="b1cef2bbf7"><path d="M 16 17 L 27 17 L 27 28 L 16 28 Z M 16 17 " clip-rule="nonzero"/></clipPath><clipPath id="af18779636"><path d="M 25.492188 16.808594 L 26.949219 26.863281 L 16.890625 28.320312 L 15.4375 18.261719 Z M 25.492188 16.808594 " clip-rule="nonzero"/></clipPath><clipPath id="e2fc737b6a"><path d="M 25.492188 16.808594 L 26.910156 26.605469 L 17.113281 28.023438 L 15.695312 18.226562 Z M 25.492188 16.808594 " clip-rule="nonzero"/></clipPath><clipPath id="489bd3a2a2"><path d="M 26.203125 21.707031 C 25.808594 19 23.296875 17.125 20.59375 17.515625 C 17.886719 17.910156 16.011719 20.417969 16.402344 23.125 C 16.792969 25.832031 19.304688 27.707031 22.011719 27.316406 C 24.71875 26.921875 26.59375 24.414062 26.203125 21.707031 Z M 26.203125 21.707031 " clip-rule="nonzero"/></clipPath><clipPath id="c6bc6b863a"><path d="M 19.300781 19.6875 L 23.65625 19.6875 L 23.65625 25.492188 L 19.300781 25.492188 Z M 19.300781 19.6875 " clip-rule="nonzero"/></clipPath></defs><g clip-path="url(#5d4780d036)"><g clip-path="url(#a384b14f1c)"><path fill="#ffffff" d="M 5.226562 5.203125 L 24.15625 5.203125 L 24.15625 23.984375 L 5.226562 23.984375 Z M 5.226562 5.203125 " fill-opacity="1" fill-rule="nonzero"/></g></g><g clip-path="url(#3cbda4ecc9)"><path fill="#000000" d="M 5.234375 20.179688 C 5.101562 20.179688 4.992188 20.132812 4.902344 20.035156 C 4.808594 19.945312 4.761719 19.832031 4.761719 19.699219 C 4.761719 19.570312 4.808594 19.457031 4.902344 19.363281 L 10.71875 13.691406 C 10.8125 13.601562 10.921875 13.554688 11.050781 13.554688 C 11.179688 13.554688 11.289062 13.601562 11.378906 13.691406 L 13.621094 15.894531 L 19.152344 10.808594 C 19.246094 10.726562 19.351562 10.683594 19.476562 10.683594 C 19.597656 10.683594 19.703125 10.726562 19.796875 10.808594 L 24.410156 15.089844 C 24.496094 15.179688 24.539062 15.289062 24.539062 15.414062 C 24.539062 15.539062 24.496094 15.644531 24.410156 15.734375 C 24.328125 15.828125 24.222656 15.875 24.097656 15.886719 C 23.976562 15.894531 23.863281 15.859375 23.769531 15.78125 L 19.503906 11.800781 L 13.960938 16.898438 C 13.871094 16.980469 13.761719 17.023438 13.636719 17.023438 C 13.511719 17.023438 13.402344 16.980469 13.308594 16.898438 L 11.078125 14.636719 L 5.59375 20.007812 C 5.5 20.121094 5.378906 20.175781 5.234375 20.179688 Z M 5.234375 20.179688 " fill-opacity="1" fill-rule="nonzero"/></g><path fill="#000000" d="M 9.960938 11.601562 C 9.691406 11.601562 9.425781 11.550781 9.175781 11.449219 C 8.921875 11.34375 8.699219 11.199219 8.507812 11.003906 C 8.3125 10.8125 8.164062 10.589844 8.058594 10.339844 C 7.953125 10.085938 7.902344 9.824219 7.902344 9.554688 C 7.902344 9.28125 7.953125 9.019531 8.054688 8.765625 C 8.160156 8.515625 8.308594 8.292969 8.5 8.097656 C 8.695312 7.90625 8.917969 7.757812 9.167969 7.652344 C 9.421875 7.550781 9.683594 7.496094 9.957031 7.496094 C 10.230469 7.5 10.492188 7.550781 10.742188 7.65625 C 10.992188 7.761719 11.214844 7.910156 11.40625 8.101562 C 11.601562 8.296875 11.75 8.519531 11.851562 8.773438 C 11.953125 9.023438 12.007812 9.285156 12.003906 9.558594 C 12.003906 9.828125 11.949219 10.089844 11.847656 10.339844 C 11.742188 10.589844 11.59375 10.808594 11.402344 11 C 11.210938 11.191406 10.992188 11.339844 10.742188 11.445312 C 10.492188 11.546875 10.234375 11.601562 9.960938 11.601562 Z M 9.960938 8.453125 C 9.816406 8.453125 9.671875 8.476562 9.539062 8.535156 C 9.402344 8.589844 9.28125 8.667969 9.175781 8.769531 C 9.070312 8.875 8.992188 8.992188 8.933594 9.128906 C 8.875 9.265625 8.847656 9.40625 8.847656 9.554688 C 8.84375 9.699219 8.871094 9.839844 8.929688 9.976562 C 8.984375 10.113281 9.0625 10.234375 9.167969 10.339844 C 9.269531 10.441406 9.390625 10.523438 9.527344 10.578125 C 9.660156 10.636719 9.800781 10.664062 9.949219 10.664062 C 10.097656 10.664062 10.238281 10.636719 10.375 10.582031 C 10.511719 10.527344 10.628906 10.445312 10.734375 10.34375 C 10.839844 10.238281 10.917969 10.117188 10.972656 9.984375 C 11.03125 9.847656 11.058594 9.707031 11.058594 9.558594 C 11.058594 9.414062 11.03125 9.273438 10.976562 9.136719 C 10.921875 9.003906 10.839844 8.882812 10.738281 8.78125 C 10.636719 8.675781 10.515625 8.597656 10.382812 8.539062 C 10.25 8.484375 10.109375 8.453125 9.960938 8.453125 Z M 9.960938 8.453125 " fill-opacity="1" fill-rule="nonzero"/><g clip-path="url(#352ab7adb7)"><path fill="#000000" d="M 21.308594 24.539062 L 8.070312 24.539062 C 7.636719 24.535156 7.21875 24.449219 6.820312 24.28125 C 6.417969 24.113281 6.066406 23.875 5.757812 23.566406 C 5.453125 23.261719 5.214844 22.90625 5.046875 22.507812 C 4.878906 22.105469 4.792969 21.691406 4.789062 21.257812 L 4.789062 8.019531 C 4.792969 7.582031 4.878906 7.167969 5.046875 6.765625 C 5.214844 6.367188 5.453125 6.011719 5.757812 5.707031 C 6.066406 5.398438 6.417969 5.160156 6.820312 4.992188 C 7.21875 4.824219 7.636719 4.742188 8.070312 4.738281 L 21.308594 4.738281 C 21.75 4.738281 22.171875 4.820312 22.574219 4.988281 C 22.980469 5.15625 23.339844 5.394531 23.648438 5.707031 C 23.960938 6.015625 24.199219 6.375 24.367188 6.78125 C 24.535156 7.183594 24.617188 7.605469 24.617188 8.046875 L 24.617188 21.257812 C 24.617188 21.691406 24.527344 22.113281 24.359375 22.515625 C 24.1875 22.917969 23.949219 23.269531 23.640625 23.578125 C 23.328125 23.886719 22.972656 24.121094 22.570312 24.289062 C 22.164062 24.453125 21.746094 24.539062 21.308594 24.539062 Z M 8.070312 5.683594 C 7.757812 5.683594 7.457031 5.742188 7.167969 5.863281 C 6.875 5.980469 6.621094 6.152344 6.398438 6.375 C 6.175781 6.597656 6.007812 6.851562 5.886719 7.140625 C 5.765625 7.429688 5.707031 7.734375 5.707031 8.046875 L 5.707031 21.257812 C 5.707031 21.570312 5.765625 21.871094 5.886719 22.160156 C 6.007812 22.449219 6.175781 22.707031 6.398438 22.929688 C 6.621094 23.148438 6.875 23.320312 7.167969 23.441406 C 7.457031 23.558594 7.757812 23.621094 8.070312 23.621094 L 21.308594 23.621094 C 21.621094 23.621094 21.925781 23.558594 22.214844 23.441406 C 22.503906 23.320312 22.757812 23.148438 22.980469 22.929688 C 23.203125 22.707031 23.375 22.449219 23.492188 22.160156 C 23.613281 21.871094 23.671875 21.570312 23.671875 21.257812 L 23.671875 8.019531 C 23.671875 7.703125 23.613281 7.402344 23.492188 7.113281 C 23.375 6.824219 23.203125 6.566406 22.980469 6.347656 C 22.757812 6.125 22.503906 5.953125 22.214844 5.832031 C 21.925781 5.714844 21.621094 5.652344 21.308594 5.652344 Z M 8.070312 5.683594 " fill-opacity="1" fill-rule="nonzero"/></g><g clip-path="url(#b06772335f)"><g clip-path="url(#803aa03b74)"><g clip-path="url(#9a45e117b4)"><path fill="#ffffff" d="M 26.242188 15.808594 L 27.914062 27.359375 L 16.363281 29.03125 L 14.6875 17.480469 Z M 26.242188 15.808594 " fill-opacity="1" fill-rule="nonzero"/></g></g></g><g clip-path="url(#4ea398004d)"><g clip-path="url(#1662558d28)"><g clip-path="url(#43af909cd1)"><g clip-path="url(#c2e4c83dfc)"><path stroke-linecap="butt" transform="matrix(0.104, 0.718317, -0.718317, 0.104, 26.242335, 15.806744)" fill="none" stroke-linejoin="miter" d="M 8.039954 0.000511668 C 3.597281 -0.00102185 -0.00201622 3.59991 0.00254784 8.038028 C 0.00101433 12.480702 3.59662 16.079228 8.039293 16.080761 C 12.477412 16.076197 16.075937 12.480591 16.077471 8.037918 C 16.078233 3.600571 12.477301 0.00127401 8.039954 0.000511668 Z M 8.039954 0.000511668 " stroke="#ffffff" stroke-width="2.4" stroke-opacity="1" stroke-miterlimit="4"/></g></g></g></g><g clip-path="url(#7a610dff16)"><g clip-path="url(#59c3ed2545)"><g clip-path="url(#ef1a290600)"><path fill="#ffffff" d="M 25.492188 16.808594 L 26.910156 26.613281 L 17.105469 28.03125 L 15.6875 18.226562 Z M 25.492188 16.808594 " fill-opacity="1" fill-rule="nonzero"/></g></g></g><g clip-path="url(#b1cef2bbf7)"><g clip-path="url(#af18779636)"><g clip-path="url(#e2fc737b6a)"><g clip-path="url(#489bd3a2a2)"><path stroke-linecap="butt" transform="matrix(0.104, 0.718317, -0.718317, 0.104, 25.492145, 16.80745)" fill="none" stroke-linejoin="miter" d="M 6.821236 -0.00218581 C 3.052148 0.00135739 -0.000393072 3.056073 -0.00140511 6.819065 C 0.00213809 10.588153 3.051528 13.639923 6.819845 13.641706 C 10.588163 13.643489 13.640703 10.588773 13.642487 6.820456 C 13.638943 3.051367 10.589554 -0.000402603 6.821236 -0.00218581 Z M 6.821236 -0.00218581 " stroke="#000000" stroke-width="2.4" stroke-opacity="1" stroke-miterlimit="4"/></g></g></g></g><g clip-path="url(#c6bc6b863a)"><path fill="#000000" d="M 21.875 25.492188 L 21.085938 25.492188 C 21.03125 25.492188 20.988281 25.449219 20.988281 25.398438 L 20.988281 21.457031 L 20.039062 22.367188 C 20 22.40625 19.9375 22.40625 19.898438 22.367188 L 19.335938 21.832031 C 19.316406 21.8125 19.304688 21.789062 19.304688 21.761719 C 19.304688 21.734375 19.316406 21.710938 19.335938 21.691406 L 21.414062 19.714844 C 21.449219 19.679688 21.511719 19.679688 21.550781 19.714844 L 23.628906 21.691406 C 23.644531 21.710938 23.65625 21.734375 23.65625 21.761719 C 23.65625 21.789062 23.644531 21.8125 23.628906 21.832031 L 23.0625 22.367188 C 23.023438 22.40625 22.964844 22.40625 22.925781 22.367188 L 21.976562 21.457031 L 21.976562 25.398438 C 21.976562 25.449219 21.929688 25.492188 21.875 25.492188 Z M 21.875 25.492188 " fill-opacity="1" fill-rule="nonzero"/></g></svg>