<svg xmlns="http://www.w3.org/2000/svg" xmlns:xlink="http://www.w3.org/1999/xlink" width="40" zoomAndPan="magnify" viewBox="0 0 30 30.000001" height="40" preserveAspectRatio="xMidYMid meet" version="1.0"><defs><clipPath id="3dcbbb7cf1"><path d="M 0.484375 0 L 29.515625 0 L 29.515625 29.03125 L 0.484375 29.03125 Z M 0.484375 0 " clip-rule="nonzero"/></clipPath><clipPath id="0a981e7703"><path d="M 4.761719 10 L 24.359375 10 L 24.359375 21 L 4.761719 21 Z M 4.761719 10 " clip-rule="nonzero"/></clipPath><clipPath id="a5544d9668"><path d="M 4.761719 4.660156 L 24.359375 4.660156 L 24.359375 24.257812 L 4.761719 24.257812 Z M 4.761719 4.660156 " clip-rule="nonzero"/></clipPath><clipPath id="a3d180fb2d"><path d="M 5.671875 5.59375 L 23.742188 5.59375 L 23.742188 23.59375 L 5.671875 23.59375 Z M 5.671875 5.59375 " clip-rule="nonzero"/></clipPath><clipPath id="c242c491c5"><path d="M 8.574219 5.59375 L 20.8125 5.59375 C 21.582031 5.59375 22.320312 5.898438 22.863281 6.441406 C 23.410156 6.988281 23.714844 7.726562 23.714844 8.496094 L 23.714844 20.6875 C 23.714844 21.460938 23.410156 22.199219 22.863281 22.742188 C 22.320312 23.285156 21.582031 23.59375 20.8125 23.59375 L 8.574219 23.59375 C 7.804688 23.59375 7.066406 23.285156 6.519531 22.742188 C 5.976562 22.199219 5.671875 21.460938 5.671875 20.6875 L 5.671875 8.496094 C 5.671875 7.726562 5.976562 6.988281 6.519531 6.441406 C 7.066406 5.898438 7.804688 5.59375 8.574219 5.59375 Z M 8.574219 5.59375 " clip-rule="nonzero"/></clipPath><clipPath id="132efc5de3"><path d="M 11.175781 9.378906 L 19.160156 9.378906 L 19.160156 19.542969 L 11.175781 19.542969 Z M 11.175781 9.378906 " clip-rule="nonzero"/></clipPath></defs><g clip-path="url(#3dcbbb7cf1)"><path fill="#ffffff" d="M 0.484375 0 L 29.515625 0 L 29.515625 29.03125 L 0.484375 29.03125 Z M 0.484375 0 " fill-opacity="1" fill-rule="nonzero"/><path fill="#ffffff" d="M 0.484375 0 L 29.515625 0 L 29.515625 29.03125 L 0.484375 29.03125 Z M 0.484375 0 " fill-opacity="1" fill-rule="nonzero"/></g><g clip-path="url(#0a981e7703)"><path fill="#000000" d="M 5.234375 20.179688 C 5.101562 20.179688 4.992188 20.132812 4.902344 20.035156 C 4.808594 19.945312 4.761719 19.832031 4.761719 19.699219 C 4.761719 19.570312 4.808594 19.457031 4.902344 19.363281 L 10.71875 13.691406 C 10.8125 13.601562 10.921875 13.554688 11.050781 13.554688 C 11.179688 13.554688 11.289062 13.601562 11.378906 13.691406 L 13.621094 15.894531 L 19.152344 10.808594 C 19.246094 10.726562 19.351562 10.683594 19.476562 10.683594 C 19.597656 10.683594 19.703125 10.726562 19.796875 10.808594 L 24.410156 15.089844 C 24.496094 15.179688 24.539062 15.289062 24.539062 15.414062 C 24.539062 15.539062 24.496094 15.644531 24.410156 15.734375 C 24.328125 15.828125 24.222656 15.875 24.097656 15.886719 C 23.976562 15.894531 23.863281 15.859375 23.769531 15.78125 L 19.503906 11.800781 L 13.960938 16.898438 C 13.871094 16.980469 13.761719 17.023438 13.636719 17.023438 C 13.511719 17.023438 13.402344 16.980469 13.308594 16.898438 L 11.078125 14.636719 L 5.59375 20.007812 C 5.5 20.121094 5.378906 20.175781 5.234375 20.179688 Z M 5.234375 20.179688 " fill-opacity="1" fill-rule="nonzero"/></g><path fill="#000000" d="M 9.960938 11.601562 C 9.691406 11.601562 9.425781 11.550781 9.175781 11.449219 C 8.921875 11.34375 8.699219 11.199219 8.507812 11.003906 C 8.3125 10.8125 8.164062 10.589844 8.058594 10.339844 C 7.953125 10.085938 7.902344 9.824219 7.902344 9.554688 C 7.902344 9.28125 7.953125 9.019531 8.054688 8.765625 C 8.160156 8.515625 8.308594 8.292969 8.5 8.097656 C 8.695312 7.90625 8.917969 7.757812 9.167969 7.652344 C 9.421875 7.550781 9.683594 7.496094 9.957031 7.496094 C 10.230469 7.5 10.492188 7.550781 10.742188 7.65625 C 10.992188 7.761719 11.214844 7.910156 11.40625 8.101562 C 11.601562 8.296875 11.75 8.519531 11.851562 8.773438 C 11.953125 9.023438 12.007812 9.285156 12.003906 9.558594 C 12.003906 9.828125 11.949219 10.089844 11.847656 10.339844 C 11.742188 10.589844 11.59375 10.808594 11.402344 11 C 11.210938 11.191406 10.992188 11.339844 10.742188 11.445312 C 10.492188 11.546875 10.234375 11.601562 9.960938 11.601562 Z M 9.960938 8.453125 C 9.816406 8.453125 9.671875 8.476562 9.539062 8.535156 C 9.402344 8.589844 9.28125 8.667969 9.175781 8.769531 C 9.070312 8.875 8.992188 8.992188 8.933594 9.128906 C 8.875 9.265625 8.847656 9.40625 8.847656 9.554688 C 8.84375 9.699219 8.871094 9.839844 8.929688 9.976562 C 8.984375 10.113281 9.0625 10.234375 9.167969 10.339844 C 9.269531 10.441406 9.390625 10.523438 9.527344 10.578125 C 9.660156 10.636719 9.800781 10.664062 9.949219 10.664062 C 10.097656 10.664062 10.238281 10.636719 10.375 10.582031 C 10.511719 10.527344 10.628906 10.445312 10.734375 10.34375 C 10.839844 10.238281 10.917969 10.117188 10.972656 9.984375 C 11.03125 9.847656 11.058594 9.707031 11.058594 9.558594 C 11.058594 9.414062 11.03125 9.273438 10.976562 9.136719 C 10.921875 9.003906 10.839844 8.882812 10.738281 8.78125 C 10.636719 8.675781 10.515625 8.597656 10.382812 8.539062 C 10.25 8.484375 10.109375 8.453125 9.960938 8.453125 Z M 9.960938 8.453125 " fill-opacity="1" fill-rule="nonzero"/><g clip-path="url(#a5544d9668)"><path fill="#000000" d="M 21.308594 24.539062 L 8.070312 24.539062 C 7.636719 24.535156 7.21875 24.449219 6.820312 24.28125 C 6.417969 24.113281 6.066406 23.875 5.757812 23.566406 C 5.453125 23.261719 5.214844 22.90625 5.046875 22.507812 C 4.878906 22.105469 4.792969 21.691406 4.789062 21.257812 L 4.789062 8.019531 C 4.792969 7.582031 4.878906 7.167969 5.046875 6.765625 C 5.214844 6.367188 5.453125 6.011719 5.757812 5.707031 C 6.066406 5.398438 6.417969 5.160156 6.820312 4.992188 C 7.21875 4.824219 7.636719 4.742188 8.070312 4.738281 L 21.308594 4.738281 C 21.75 4.738281 22.171875 4.820312 22.574219 4.988281 C 22.980469 5.15625 23.339844 5.394531 23.648438 5.707031 C 23.960938 6.015625 24.199219 6.375 24.367188 6.78125 C 24.535156 7.183594 24.617188 7.605469 24.617188 8.046875 L 24.617188 21.257812 C 24.617188 21.691406 24.527344 22.113281 24.359375 22.515625 C 24.1875 22.917969 23.949219 23.269531 23.640625 23.578125 C 23.328125 23.886719 22.972656 24.121094 22.570312 24.289062 C 22.164062 24.453125 21.746094 24.539062 21.308594 24.539062 Z M 8.070312 5.683594 C 7.757812 5.683594 7.457031 5.742188 7.167969 5.863281 C 6.875 5.980469 6.621094 6.152344 6.398438 6.375 C 6.175781 6.597656 6.007812 6.851562 5.886719 7.140625 C 5.765625 7.429688 5.707031 7.734375 5.707031 8.046875 L 5.707031 21.257812 C 5.707031 21.570312 5.765625 21.871094 5.886719 22.160156 C 6.007812 22.449219 6.175781 22.707031 6.398438 22.929688 C 6.621094 23.148438 6.875 23.320312 7.167969 23.441406 C 7.457031 23.558594 7.757812 23.621094 8.070312 23.621094 L 21.308594 23.621094 C 21.621094 23.621094 21.925781 23.558594 22.214844 23.441406 C 22.503906 23.320312 22.757812 23.148438 22.980469 22.929688 C 23.203125 22.707031 23.375 22.449219 23.492188 22.160156 C 23.613281 21.871094 23.671875 21.570312 23.671875 21.257812 L 23.671875 8.019531 C 23.671875 7.703125 23.613281 7.402344 23.492188 7.113281 C 23.375 6.824219 23.203125 6.566406 22.980469 6.347656 C 22.757812 6.125 22.503906 5.953125 22.214844 5.832031 C 21.925781 5.714844 21.621094 5.652344 21.308594 5.652344 Z M 8.070312 5.683594 " fill-opacity="1" fill-rule="nonzero"/></g><g clip-path="url(#a3d180fb2d)"><g clip-path="url(#c242c491c5)"><path fill="#ffffff" d="M 5.671875 5.59375 L 23.742188 5.59375 L 23.742188 23.59375 L 5.671875 23.59375 Z M 5.671875 5.59375 " fill-opacity="1" fill-rule="nonzero"/></g></g><g clip-path="url(#132efc5de3)"><path fill="#000000" d="M 15.898438 19.542969 L 14.449219 19.542969 C 14.347656 19.542969 14.265625 19.464844 14.265625 19.371094 L 14.265625 12.480469 L 12.523438 14.074219 C 12.453125 14.140625 12.34375 14.140625 12.273438 14.074219 L 11.238281 13.132812 C 11.203125 13.101562 11.183594 13.058594 11.183594 13.011719 C 11.183594 12.96875 11.203125 12.921875 11.238281 12.890625 L 15.046875 9.429688 C 15.117188 9.363281 15.230469 9.363281 15.300781 9.429688 L 19.109375 12.890625 C 19.144531 12.921875 19.164062 12.96875 19.164062 13.011719 C 19.164062 13.058594 19.144531 13.101562 19.109375 13.132812 L 18.074219 14.074219 C 18.003906 14.140625 17.890625 14.140625 17.820312 14.074219 L 16.082031 12.480469 L 16.082031 19.371094 C 16.082031 19.464844 16 19.542969 15.898438 19.542969 Z M 15.898438 19.542969 " fill-opacity="1" fill-rule="nonzero"/></g></svg>